<svg xmlns="http://www.w3.org/2000/svg" version="1.1" xmlns:xlink="http://www.w3.org/1999/xlink" xmlns:svgjs="http://svgjs.dev/svgjs" width="1440" height="560" preserveAspectRatio="none" viewBox="0 0 1440 560"><g mask="url(&quot;#SvgjsMask1012&quot;)" fill="none"><rect width="1440" height="560" x="0" y="0" fill="#1e3266"></rect><path d="M1536 560L0 560 L0 290.6Q68.75 287.35, 72 356.1Q88.3 300.4, 144 316.7Q212.58 265.28, 264 333.86Q299.42 249.28, 384 284.7Q453.34 234.04, 504 303.39Q584 263.39, 624 343.39Q668.89 316.28, 696 361.17Q721.07 266.24, 816 291.3Q887.05 242.35, 936 313.4Q1012.71 270.11, 1056 346.81Q1106.05 276.86, 1176 326.9Q1221.57 252.46, 1296 298.03Q1364.4 246.43, 1416 314.83Q1501.34 280.16, 1536 365.5z" fill="#182f5d"></path><path d="M1464 560L0 560 L0 373.32Q50.3 303.62, 120 353.91Q174.48 336.39, 192 390.87Q249.69 376.56, 264 434.26Q282.32 332.58, 384 350.9Q428.76 323.66, 456 368.42Q547.53 339.95, 576 431.47Q609.78 345.25, 696 379.03Q742.61 305.63, 816 352.24Q874.9 339.14, 888 398.05Q939.68 377.74, 960 429.42Q981.09 330.51, 1080 351.6Q1123.55 323.15, 1152 366.71Q1227.02 321.73, 1272 396.74Q1323.33 376.07, 1344 427.4Q1412.28 375.67, 1464 443.95z" fill="#25467d"></path><path d="M1488 560L0 560 L0 490.89Q52.44 423.33, 120 475.78Q145.07 428.85, 192 453.91Q257.75 399.67, 312 465.42Q354.2 435.63, 384 477.83Q453.13 426.96, 504 496.09Q506.55 426.64, 576 429.19Q643.15 376.34, 696 443.49Q785.11 412.6, 816 501.71Q870.42 436.13, 936 490.55Q974.23 408.78, 1056 447.02Q1104.12 375.14, 1176 423.26Q1266.89 394.15, 1296 485.04Q1342.16 411.2, 1416 457.36Q1457.05 426.41, 1488 467.46z" fill="#356cb1"></path><path d="M1512 560L0 560 L0 550.47Q43.25 521.72, 72 564.97Q143.42 516.39, 192 587.82Q222.51 498.34, 312 528.85Q359.27 504.12, 384 551.39Q437.93 533.32, 456 587.24Q477.63 488.88, 576 510.51Q630.17 444.68, 696 498.85Q753.85 484.7, 768 542.55Q816.17 470.72, 888 518.9Q945.77 504.67, 960 562.44Q989.47 519.91, 1032 549.39Q1078.43 475.82, 1152 522.25Q1200.88 451.13, 1272 500.01Q1337.37 445.38, 1392 510.74Q1480.56 479.3, 1512 567.85z" fill="rgba(243, 244, 246, 1)"></path></g><defs><mask id="SvgjsMask1012"><rect width="1440" height="560" fill="#ffffff"></rect></mask></defs></svg>